<svg xmlns="http://www.w3.org/2000/svg" version="1.1" xmlns:xlink="http://www.w3.org/1999/xlink" xmlns:svgjs="http://svgjs.dev/svgjs" viewBox="0 0 13.634500097953286 2.1052505877063195"><g transform="matrix(1,0,0,1,0.4069049238394298,0.4308456638668894)"><g><path d=" M 0.7695 0.038249999999999895 Q 0.8415 0.04949999999999988 0.882 0.0674999999999999 Q 0.8955000000000001 0.07199999999999984 0.89925 0.07874999999999988 Q 0.903 0.0854999999999998 0.906 0.10199999999999987 L 0.924 0.3104999999999999 Q 0.924 0.31499999999999984 0.9165 0.3164999999999999 Q 0.909 0.31799999999999984 0.9075 0.31199999999999983 Q 0.8565 0.1934999999999999 0.771 0.1289999999999999 Q 0.6855 0.06449999999999989 0.5730000000000001 0.06449999999999989 Q 0.4245 0.06449999999999989 0.3435 0.17399999999999982 Q 0.2625 0.28349999999999986 0.2625 0.46799999999999986 Q 0.2625 0.6059999999999999 0.30675 0.7199999999999999 Q 0.35100000000000003 0.8339999999999999 0.43125 0.9007499999999998 Q 0.5115000000000001 0.9674999999999999 0.6135 0.9674999999999999 Q 0.7095 0.9674999999999999 0.78525 0.9037499999999998 Q 0.861 0.8399999999999999 0.921 0.7094999999999998 Q 0.9225 0.7034999999999998 0.93075 0.7049999999999998 Q 0.9390000000000001 0.7064999999999999 0.9390000000000001 0.7109999999999999 L 0.9165 0.9149999999999998 Q 0.9135 0.9329999999999998 0.9097500000000001 0.9382499999999999 Q 0.906 0.9434999999999999 0.8925000000000001 0.9494999999999999 Q 0.759 0.9989999999999999 0.618 0.9989999999999999 Q 0.435 0.9989999999999999 0.312 0.9262499999999999 Q 0.189 0.8534999999999999 0.13125 0.7417499999999999 Q 0.0735 0.6299999999999999 0.0735 0.5084999999999998 Q 0.0735 0.3659999999999999 0.15075 0.25649999999999984 Q 0.228 0.1469999999999999 0.35625 0.08699999999999986 Q 0.4845 0.026999999999999802 0.6315000000000001 0.026999999999999802 Q 0.6975 0.026999999999999802 0.7695 0.038249999999999895 M 1.8195095214843753 0.3052499999999999 Q 1.803009521484375 0.3134999999999999 1.797009521484375 0.3344999999999999 Q 1.791009521484375 0.3554999999999998 1.791009521484375 0.40049999999999986 L 1.791009521484375 0.8594999999999999 Q 1.791009521484375 0.9044999999999999 1.797009521484375 0.9262499999999999 Q 1.803009521484375 0.9479999999999998 1.8187595214843753 0.9554999999999999 Q 1.8345095214843752 0.9629999999999999 1.867509521484375 0.9629999999999999 Q 1.872009521484375 0.9629999999999999 1.872009521484375 0.9719999999999999 Q 1.872009521484375 0.9809999999999999 1.867509521484375 0.9809999999999999 L 1.7700095214843752 0.9794999999999999 L 1.6695095214843751 0.9809999999999999 Q 1.6515095214843751 0.9809999999999999 1.6462595214843752 0.9764999999999999 Q 1.6410095214843752 0.9719999999999999 1.6410095214843752 0.9524999999999999 L 1.6410095214843752 0.8714999999999998 Q 1.5285095214843751 0.9989999999999999 1.374009521484375 0.9989999999999999 Q 1.2705095214843751 0.9989999999999999 1.2000095214843751 0.9434999999999999 Q 1.1295095214843751 0.8879999999999999 1.1295095214843751 0.7724999999999999 L 1.1295095214843751 0.40049999999999986 Q 1.1295095214843751 0.3554999999999998 1.1250095214843752 0.3344999999999999 Q 1.1205095214843752 0.3134999999999999 1.1085095214843752 0.3052499999999999 Q 1.0965095214843752 0.2969999999999998 1.0710095214843751 0.2969999999999998 Q 1.0680095214843752 0.2969999999999998 1.0680095214843752 0.2879999999999998 Q 1.0680095214843752 0.2789999999999998 1.0710095214843751 0.2789999999999998 L 1.1295095214843751 0.28049999999999986 Q 1.1775095214843752 0.28349999999999986 1.2075095214843752 0.28349999999999986 Q 1.2435095214843752 0.28349999999999986 1.297509521484375 0.28049999999999986 L 1.357509521484375 0.2789999999999998 Q 1.3605095214843752 0.2789999999999998 1.3605095214843752 0.2879999999999998 Q 1.3605095214843752 0.2969999999999998 1.357509521484375 0.2969999999999998 Q 1.3230095214843751 0.2969999999999998 1.3065095214843752 0.3059999999999998 Q 1.2900095214843752 0.31499999999999984 1.2840095214843752 0.3367499999999999 Q 1.2780095214843752 0.3584999999999998 1.2780095214843752 0.40349999999999986 L 1.2780095214843752 0.7364999999999999 Q 1.2780095214843752 0.8504999999999998 1.320759521484375 0.8999999999999999 Q 1.363509521484375 0.9494999999999999 1.434009521484375 0.9494999999999999 Q 1.551009521484375 0.9494999999999999 1.6410095214843752 0.8219999999999998 L 1.6410095214843752 0.40349999999999986 Q 1.6410095214843752 0.3584999999999998 1.635759521484375 0.3367499999999999 Q 1.6305095214843752 0.31499999999999984 1.614759521484375 0.3059999999999998 Q 1.5990095214843751 0.2969999999999998 1.566009521484375 0.2969999999999998 Q 1.5615095214843753 0.2969999999999998 1.5615095214843753 0.2879999999999998 Q 1.5615095214843753 0.2789999999999998 1.566009521484375 0.2789999999999998 L 1.6350095214843752 0.28049999999999986 Q 1.6920095214843751 0.28349999999999986 1.7220095214843751 0.28349999999999986 Q 1.7490095214843753 0.28349999999999986 1.803009521484375 0.28049999999999986 L 1.870509521484375 0.2789999999999998 Q 1.8750095214843752 0.2789999999999998 1.8750095214843752 0.2879999999999998 Q 1.8750095214843752 0.2969999999999998 1.870509521484375 0.2969999999999998 Q 1.836009521484375 0.2969999999999998 1.8195095214843753 0.3052499999999999 M 2.232758056640625 0.9224999999999999 Q 2.2425080566406255 0.9449999999999998 2.270258056640625 0.9539999999999998 Q 2.2980080566406254 0.9629999999999999 2.3565080566406253 0.9629999999999999 Q 2.361008056640625 0.9629999999999999 2.361008056640625 0.9719999999999999 Q 2.361008056640625 0.9809999999999999 2.3565080566406253 0.9809999999999999 Q 2.2995080566406254 0.9809999999999999 2.268008056640625 0.9794999999999999 L 2.149508056640625 0.9779999999999999 L 2.0520080566406254 0.9794999999999999 Q 2.025008056640625 0.9809999999999999 1.9770080566406252 0.9809999999999999 Q 1.9740080566406253 0.9809999999999999 1.9740080566406253 0.9719999999999999 Q 1.9740080566406253 0.9629999999999999 1.9770080566406252 0.9629999999999999 Q 2.0190080566406254 0.9629999999999999 2.0392580566406253 0.9547499999999999 Q 2.059508056640625 0.9464999999999999 2.067008056640625 0.9254999999999999 Q 2.0745080566406253 0.9044999999999999 2.0745080566406253 0.8594999999999999 L 2.0745080566406253 0.40049999999999986 Q 2.0745080566406253 0.3569999999999999 2.0662580566406255 0.3352499999999998 Q 2.058008056640625 0.3134999999999999 2.0377580566406253 0.3052499999999999 Q 2.0175080566406254 0.2969999999999998 1.9770080566406252 0.2969999999999998 Q 1.9740080566406253 0.2969999999999998 1.9740080566406253 0.2879999999999998 Q 1.9740080566406253 0.2789999999999998 1.9770080566406252 0.2789999999999998 L 2.0505080566406253 0.28049999999999986 Q 2.113508056640625 0.28349999999999986 2.1480080566406254 0.28349999999999986 Q 2.187008056640625 0.28349999999999986 2.2290080566406254 0.2789999999999998 Q 2.245508056640625 0.27749999999999986 2.2762580566406254 0.2759999999999999 Q 2.3070080566406252 0.27449999999999986 2.329508056640625 0.27449999999999986 Q 2.458508056640625 0.27449999999999986 2.526008056640625 0.3164999999999999 Q 2.5935080566406254 0.3584999999999998 2.5935080566406254 0.4424999999999999 Q 2.5935080566406254 0.5174999999999998 2.5567580566406254 0.5699999999999998 Q 2.5200080566406253 0.6224999999999998 2.4607580566406253 0.6487499999999999 Q 2.4015080566406253 0.6749999999999998 2.3355080566406254 0.6749999999999998 Q 2.3070080566406252 0.6749999999999998 2.301008056640625 0.6719999999999999 Q 2.2965080566406253 0.6689999999999998 2.2965080566406253 0.6614999999999999 Q 2.2965080566406253 0.6524999999999999 2.3070080566406252 0.6524999999999999 L 2.328008056640625 0.6539999999999999 Q 2.373008056640625 0.6539999999999999 2.399258056640625 0.6097499999999998 Q 2.4255080566406253 0.5654999999999999 2.4255080566406253 0.47699999999999987 Q 2.4255080566406253 0.3839999999999999 2.3925080566406254 0.3427499999999999 Q 2.3595080566406255 0.3014999999999999 2.2950080566406252 0.3014999999999999 Q 2.257508056640625 0.3014999999999999 2.2402580566406254 0.32174999999999987 Q 2.223008056640625 0.34199999999999986 2.223008056640625 0.40349999999999986 L 2.223008056640625 0.8534999999999999 Q 2.223008056640625 0.8999999999999999 2.232758056640625 0.9224999999999999 M 2.9542705078125002 0.9224999999999999 Q 2.9640205078125 0.9449999999999998 2.9917705078125003 0.9539999999999998 Q 3.0195205078125005 0.9629999999999999 3.0780205078125005 0.9629999999999999 Q 3.0825205078125 0.9629999999999999 3.0825205078125 0.9719999999999999 Q 3.0825205078125 0.9809999999999999 3.0780205078125005 0.9809999999999999 Q 3.0210205078125005 0.9809999999999999 2.9895205078125002 0.9794999999999999 L 2.8710205078125 0.9779999999999999 L 2.7735205078125005 0.9794999999999999 Q 2.7465205078125003 0.9809999999999999 2.6985205078125003 0.9809999999999999 Q 2.6955205078125 0.9809999999999999 2.6955205078125 0.9719999999999999 Q 2.6955205078125 0.9629999999999999 2.6985205078125003 0.9629999999999999 Q 2.7405205078125006 0.9629999999999999 2.7607705078125004 0.9547499999999999 Q 2.7810205078125003 0.9464999999999999 2.7885205078125006 0.9254999999999999 Q 2.7960205078125004 0.9044999999999999 2.7960205078125004 0.8594999999999999 L 2.7960205078125004 0.40049999999999986 Q 2.7960205078125004 0.3569999999999999 2.7877705078125006 0.3352499999999998 Q 2.7795205078125003 0.3134999999999999 2.7592705078125004 0.3052499999999999 Q 2.7390205078125005 0.2969999999999998 2.6985205078125003 0.2969999999999998 Q 2.6955205078125 0.2969999999999998 2.6955205078125 0.2879999999999998 Q 2.6955205078125 0.2789999999999998 2.6985205078125003 0.2789999999999998 L 2.7720205078125004 0.28049999999999986 Q 2.8350205078125006 0.28349999999999986 2.8695205078125006 0.28349999999999986 Q 2.9085205078125003 0.28349999999999986 2.9505205078125005 0.2789999999999998 Q 2.9670205078125003 0.27749999999999986 2.9977705078125005 0.2759999999999999 Q 3.0285205078125004 0.27449999999999986 3.0510205078125003 0.27449999999999986 Q 3.1800205078125003 0.27449999999999986 3.2475205078125002 0.3164999999999999 Q 3.3150205078125 0.3584999999999998 3.3150205078125 0.4424999999999999 Q 3.3150205078125 0.5174999999999998 3.2782705078125005 0.5699999999999998 Q 3.2415205078125005 0.6224999999999998 3.1822705078125004 0.6487499999999999 Q 3.1230205078125004 0.6749999999999998 3.0570205078125006 0.6749999999999998 Q 3.0285205078125004 0.6749999999999998 3.0225205078125006 0.6719999999999999 Q 3.0180205078125004 0.6689999999999998 3.0180205078125004 0.6614999999999999 Q 3.0180205078125004 0.6524999999999999 3.0285205078125004 0.6524999999999999 L 3.0495205078125003 0.6539999999999999 Q 3.0945205078125 0.6539999999999999 3.1207705078125003 0.6097499999999998 Q 3.1470205078125004 0.5654999999999999 3.1470205078125004 0.47699999999999987 Q 3.1470205078125004 0.3839999999999999 3.1140205078125005 0.3427499999999999 Q 3.0810205078125 0.3014999999999999 3.0165205078125004 0.3014999999999999 Q 2.9790205078125003 0.3014999999999999 2.9617705078125005 0.32174999999999987 Q 2.9445205078125003 0.34199999999999986 2.9445205078125003 0.40349999999999986 L 2.9445205078125003 0.8534999999999999 Q 2.9445205078125003 0.8999999999999999 2.9542705078125002 0.9224999999999999 M 3.6855329589843757 0.9262499999999999 Q 3.6930329589843756 0.9479999999999998 3.7125329589843754 0.9554999999999999 Q 3.7320329589843757 0.9629999999999999 3.7755329589843756 0.9629999999999999 Q 3.7785329589843757 0.9629999999999999 3.7785329589843757 0.9719999999999999 Q 3.7785329589843757 0.9809999999999999 3.7755329589843756 0.9809999999999999 Q 3.7290329589843756 0.9809999999999999 3.7035329589843755 0.9794999999999999 L 3.6015329589843756 0.9779999999999999 L 3.5040329589843755 0.9794999999999999 Q 3.4770329589843754 0.9809999999999999 3.4290329589843753 0.9809999999999999 Q 3.4260329589843757 0.9809999999999999 3.4260329589843757 0.9719999999999999 Q 3.4260329589843757 0.9629999999999999 3.4290329589843753 0.9629999999999999 Q 3.4725329589843756 0.9629999999999999 3.4927829589843755 0.9554999999999999 Q 3.5130329589843754 0.9479999999999998 3.5205329589843757 0.9262499999999999 Q 3.5280329589843755 0.9044999999999999 3.5280329589843755 0.8594999999999999 L 3.5280329589843755 0.40049999999999986 Q 3.5280329589843755 0.3554999999999998 3.5205329589843757 0.3344999999999999 Q 3.5130329589843754 0.3134999999999999 3.4927829589843755 0.3052499999999999 Q 3.4725329589843756 0.2969999999999998 3.4290329589843753 0.2969999999999998 Q 3.4260329589843757 0.2969999999999998 3.4260329589843757 0.2879999999999998 Q 3.4260329589843757 0.2789999999999998 3.4290329589843753 0.2789999999999998 L 3.5040329589843755 0.28049999999999986 Q 3.5640329589843756 0.28349999999999986 3.6015329589843756 0.28349999999999986 Q 3.6420329589843754 0.28349999999999986 3.7050329589843756 0.28049999999999986 L 3.7755329589843756 0.2789999999999998 Q 3.7785329589843757 0.2789999999999998 3.7785329589843757 0.2879999999999998 Q 3.7785329589843757 0.2969999999999998 3.7755329589843756 0.2969999999999998 Q 3.7335329589843753 0.2969999999999998 3.7132829589843754 0.3059999999999998 Q 3.6930329589843756 0.31499999999999984 3.6855329589843757 0.3367499999999999 Q 3.6780329589843754 0.3584999999999998 3.6780329589843754 0.40349999999999986 L 3.6780329589843754 0.8594999999999999 Q 3.6780329589843754 0.9044999999999999 3.6855329589843757 0.9262499999999999 M 4.693500732421875 0.9719999999999999 Q 4.693500732421875 0.9809999999999999 4.690500732421875 0.9809999999999999 Q 4.653000732421876 0.9809999999999999 4.632000732421876 0.9794999999999999 L 4.554000732421875 0.9779999999999999 L 4.464000732421876 0.9794999999999999 Q 4.441500732421876 0.9809999999999999 4.404000732421876 0.9809999999999999 Q 4.401000732421876 0.9809999999999999 4.401000732421876 0.9719999999999999 Q 4.401000732421876 0.9629999999999999 4.404000732421876 0.9629999999999999 Q 4.4385007324218755 0.9629999999999999 4.455000732421876 0.9539999999999998 Q 4.471500732421876 0.9449999999999998 4.477500732421875 0.9232499999999999 Q 4.483500732421875 0.9014999999999999 4.483500732421875 0.8564999999999998 L 4.483500732421875 0.5579999999999998 Q 4.483500732421875 0.4169999999999998 4.442250732421876 0.3637499999999999 Q 4.401000732421876 0.3104999999999999 4.329000732421876 0.3104999999999999 Q 4.269000732421875 0.3104999999999999 4.217250732421876 0.3404999999999999 Q 4.165500732421876 0.37049999999999983 4.120500732421876 0.43799999999999983 L 4.120500732421876 0.8564999999999998 Q 4.120500732421876 0.9014999999999999 4.125750732421876 0.9232499999999999 Q 4.131000732421875 0.9449999999999998 4.146750732421876 0.9539999999999998 Q 4.162500732421876 0.9629999999999999 4.195500732421876 0.9629999999999999 Q 4.198500732421875 0.9629999999999999 4.198500732421875 0.9719999999999999 Q 4.198500732421875 0.9809999999999999 4.195500732421876 0.9809999999999999 Q 4.152000732421875 0.9809999999999999 4.126500732421876 0.9794999999999999 L 4.0395007324218755 0.9779999999999999 L 3.9570007324218754 0.9794999999999999 Q 3.9330007324218754 0.9809999999999999 3.8895007324218756 0.9809999999999999 Q 3.8865007324218754 0.9809999999999999 3.8865007324218754 0.9719999999999999 Q 3.8865007324218754 0.9629999999999999 3.8895007324218756 0.9629999999999999 Q 3.9240007324218755 0.9629999999999999 3.9412507324218757 0.9554999999999999 Q 3.9585007324218755 0.9479999999999998 3.9645007324218757 0.9262499999999999 Q 3.9705007324218755 0.9044999999999999 3.9705007324218755 0.8594999999999999 L 3.9705007324218755 0.40049999999999986 Q 3.9705007324218755 0.3554999999999998 3.9645007324218757 0.3344999999999999 Q 3.9585007324218755 0.3134999999999999 3.942750732421876 0.3052499999999999 Q 3.9270007324218756 0.2969999999999998 3.8940007324218757 0.2969999999999998 Q 3.8895007324218756 0.2969999999999998 3.8895007324218756 0.2879999999999998 Q 3.8895007324218756 0.2789999999999998 3.8940007324218757 0.2789999999999998 L 3.9915007324218754 0.28049999999999986 L 4.092000732421876 0.2789999999999998 Q 4.1100007324218755 0.2789999999999998 4.115250732421876 0.2842499999999999 Q 4.120500732421876 0.28949999999999987 4.120500732421876 0.3074999999999999 L 4.120500732421876 0.3899999999999999 Q 4.177500732421875 0.32399999999999984 4.243500732421875 0.29249999999999987 Q 4.309500732421876 0.2609999999999999 4.389000732421875 0.2609999999999999 Q 4.494000732421876 0.2609999999999999 4.563000732421876 0.3202499999999998 Q 4.632000732421876 0.37949999999999984 4.632000732421876 0.5234999999999999 L 4.632000732421876 0.8594999999999999 Q 4.632000732421876 0.9044999999999999 4.636500732421876 0.9262499999999999 Q 4.641000732421876 0.9479999999999998 4.653000732421876 0.9554999999999999 Q 4.665000732421875 0.9629999999999999 4.690500732421875 0.9629999999999999 Q 4.693500732421875 0.9629999999999999 4.693500732421875 0.9719999999999999 M 4.9762770996093755 0.9487499999999999 Q 4.887027099609376 0.8984999999999999 4.840527099609376 0.8159999999999998 Q 4.794027099609376 0.7334999999999998 4.794027099609376 0.6419999999999999 Q 4.794027099609376 0.5249999999999999 4.847277099609376 0.43874999999999986 Q 4.900527099609376 0.3524999999999998 4.998027099609375 0.30674999999999986 Q 5.0955270996093756 0.2609999999999999 5.227527099609376 0.2609999999999999 Q 5.293527099609376 0.2609999999999999 5.354277099609376 0.2729999999999999 Q 5.415027099609376 0.2849999999999998 5.455527099609376 0.3074999999999999 Q 5.466027099609375 0.31199999999999983 5.4682770996093755 0.31799999999999984 Q 5.4705270996093756 0.32399999999999984 5.472027099609376 0.3404999999999999 L 5.479527099609376 0.4814999999999999 Q 5.479527099609376 0.4859999999999999 5.471277099609376 0.48674999999999985 Q 5.463027099609375 0.4874999999999999 5.461527099609376 0.4829999999999999 Q 5.346027099609376 0.2939999999999998 5.193027099609376 0.2939999999999998 Q 5.086527099609376 0.2939999999999998 5.025777099609376 0.37949999999999984 Q 4.965027099609376 0.46499999999999986 4.965027099609376 0.6224999999999998 Q 4.965027099609376 0.7754999999999999 5.034027099609376 0.8699999999999999 Q 5.103027099609376 0.9644999999999999 5.221527099609376 0.9644999999999999 Q 5.2815270996093755 0.9644999999999999 5.309277099609376 0.9517499999999999 Q 5.337027099609376 0.9389999999999998 5.346777099609376 0.9037499999999998 Q 5.356527099609376 0.8684999999999998 5.356527099609376 0.7919999999999998 Q 5.356527099609376 0.7529999999999999 5.3505270996093754 0.7372499999999998 Q 5.344527099609376 0.7214999999999998 5.325027099609375 0.7162499999999998 Q 5.3055270996093755 0.7109999999999999 5.2575270996093755 0.7109999999999999 Q 5.248527099609376 0.7109999999999999 5.248527099609376 0.6989999999999998 Q 5.248527099609376 0.6944999999999999 5.250777099609376 0.6907499999999999 Q 5.253027099609376 0.6869999999999998 5.256027099609375 0.6869999999999998 Q 5.334027099609376 0.6929999999999998 5.413527099609376 0.6929999999999998 Q 5.449527099609376 0.6929999999999998 5.533527099609376 0.69 Q 5.536527099609375 0.69 5.5387770996093755 0.6937499999999999 Q 5.541027099609376 0.6974999999999998 5.541027099609376 0.7004999999999999 Q 5.541027099609376 0.7109999999999999 5.533527099609376 0.7109999999999999 Q 5.511027099609375 0.7094999999999998 5.502027099609376 0.7154999999999998 Q 5.4930270996093755 0.7214999999999998 5.490027099609375 0.7402499999999999 Q 5.487027099609376 0.7589999999999999 5.487027099609376 0.8069999999999998 Q 5.487027099609376 0.8744999999999998 5.490777099609375 0.9014999999999999 Q 5.494527099609376 0.9284999999999999 5.494527099609376 0.9389999999999998 Q 5.494527099609376 0.9479999999999998 5.4915270996093755 0.9502499999999998 Q 5.488527099609376 0.9524999999999999 5.476527099609376 0.9569999999999999 Q 5.3760270996093755 0.9989999999999999 5.185527099609375 0.9989999999999999 Q 5.065527099609376 0.9989999999999999 4.9762770996093755 0.9487499999999999 M 6.033078369140625 0.3104999999999999 Q 6.031578369140625 0.31499999999999984 6.024078369140625 0.3142499999999998 Q 6.016578369140625 0.3134999999999999 6.016578369140625 0.30899999999999983 Q 6.022578369140625 0.2489999999999999 6.030078369140625 0.15374999999999983 Q 6.0375783691406255 0.058499999999999885 6.0375783691406255 0.010499999999999843 Q 6.0375783691406255 0.0029999999999998916 6.045828369140625 0.0029999999999998916 Q 6.054078369140625 0.0029999999999998916 6.054078369140625 0.010499999999999843 Q 6.054078369140625 0.04349999999999987 6.139578369140625 0.04349999999999987 Q 6.268578369140625 0.04799999999999982 6.441078369140625 0.04799999999999982 Q 6.5295783691406255 0.04799999999999982 6.628578369140625 0.04499999999999982 L 6.730578369140625 0.04349999999999987 Q 6.7875783691406255 0.04349999999999987 6.813828369140625 0.03599999999999981 Q 6.840078369140625 0.02849999999999986 6.847578369140625 0.005999999999999894 Q 6.849078369140625 -1.1102230246251565e-16 6.8573283691406255 -1.1102230246251565e-16 Q 6.865578369140625 -1.1102230246251565e-16 6.865578369140625 0.005999999999999894 Q 6.861078369140625 0.05099999999999982 6.855828369140625 0.1499999999999998 Q 6.850578369140625 0.2489999999999999 6.850578369140625 0.30899999999999983 Q 6.850578369140625 0.3134999999999999 6.843078369140625 0.3134999999999999 Q 6.8355783691406256 0.3134999999999999 6.8340783691406255 0.30899999999999983 Q 6.811578369140625 0.1934999999999999 6.750078369140625 0.13574999999999982 Q 6.688578369140625 0.07799999999999985 6.5985783691406255 0.07799999999999985 Q 6.555078369140626 0.07799999999999985 6.540828369140625 0.09674999999999989 Q 6.526578369140625 0.11549999999999983 6.526578369140625 0.16799999999999982 L 6.526578369140625 0.8594999999999999 Q 6.526578369140625 0.9059999999999999 6.535578369140625 0.9269999999999998 Q 6.544578369140625 0.9479999999999998 6.570078369140625 0.9554999999999999 Q 6.595578369140625 0.9629999999999999 6.651078369140625 0.9629999999999999 Q 6.655578369140625 0.9629999999999999 6.655578369140625 0.9719999999999999 Q 6.655578369140625 0.9809999999999999 6.651078369140625 0.9809999999999999 Q 6.597078369140625 0.9809999999999999 6.565578369140625 0.9794999999999999 L 6.441078369140625 0.9779999999999999 L 6.3195783691406255 0.9794999999999999 Q 6.288078369140625 0.9809999999999999 6.232578369140625 0.9809999999999999 Q 6.228078369140625 0.9809999999999999 6.228078369140625 0.9719999999999999 Q 6.228078369140625 0.9629999999999999 6.232578369140625 0.9629999999999999 Q 6.286578369140625 0.9629999999999999 6.312828369140625 0.9554999999999999 Q 6.339078369140625 0.9479999999999998 6.348828369140625 0.9262499999999999 Q 6.358578369140625 0.9044999999999999 6.358578369140625 0.8594999999999999 L 6.358578369140625 0.1649999999999998 Q 6.358578369140625 0.11399999999999988 6.345078369140625 0.09599999999999986 Q 6.331578369140625 0.07799999999999985 6.289578369140625 0.07799999999999985 Q 6.111078369140625 0.07799999999999985 6.033078369140625 0.3104999999999999 M 7.7896267089843745 0.9719999999999999 Q 7.7896267089843745 0.9809999999999999 7.785126708984375 0.9809999999999999 Q 7.738626708984375 0.9809999999999999 7.713126708984375 0.9794999999999999 L 7.614126708984375 0.9779999999999999 L 7.513626708984375 0.9794999999999999 Q 7.488126708984375 0.9809999999999999 7.441626708984375 0.9809999999999999 Q 7.4371267089843744 0.9809999999999999 7.4371267089843744 0.9719999999999999 Q 7.4371267089843744 0.9629999999999999 7.441626708984375 0.9629999999999999 Q 7.483626708984374 0.9629999999999999 7.503126708984375 0.9554999999999999 Q 7.522626708984375 0.9479999999999998 7.530126708984374 0.9262499999999999 Q 7.537626708984375 0.9044999999999999 7.537626708984375 0.8594999999999999 L 7.537626708984375 0.6464999999999999 L 7.176126708984375 0.6464999999999999 L 7.176126708984375 0.8594999999999999 Q 7.176126708984375 0.9044999999999999 7.183626708984375 0.9254999999999999 Q 7.191126708984375 0.9464999999999999 7.211376708984375 0.9547499999999999 Q 7.231626708984375 0.9629999999999999 7.2736267089843745 0.9629999999999999 Q 7.276626708984375 0.9629999999999999 7.276626708984375 0.9719999999999999 Q 7.276626708984375 0.9809999999999999 7.2736267089843745 0.9809999999999999 Q 7.2271267089843745 0.9809999999999999 7.201626708984374 0.9794999999999999 L 7.101126708984375 0.9779999999999999 L 7.003626708984375 0.9794999999999999 Q 6.976626708984375 0.9809999999999999 6.928626708984375 0.9809999999999999 Q 6.925626708984375 0.9809999999999999 6.925626708984375 0.9719999999999999 Q 6.925626708984375 0.9629999999999999 6.928626708984375 0.9629999999999999 Q 6.972126708984375 0.9629999999999999 6.9923767089843745 0.9554999999999999 Q 7.012626708984374 0.9479999999999998 7.020126708984375 0.9262499999999999 Q 7.027626708984375 0.9044999999999999 7.027626708984375 0.8594999999999999 L 7.027626708984375 0.40049999999999986 Q 7.027626708984375 0.3554999999999998 7.020126708984375 0.3344999999999999 Q 7.012626708984374 0.3134999999999999 6.9923767089843745 0.3052499999999999 Q 6.972126708984375 0.2969999999999998 6.931626708984375 0.2969999999999998 Q 6.927126708984375 0.2969999999999998 6.927126708984375 0.2879999999999998 Q 6.927126708984375 0.2789999999999998 6.931626708984375 0.2789999999999998 L 7.003626708984375 0.28049999999999986 Q 7.0636267089843745 0.28349999999999986 7.101126708984375 0.28349999999999986 Q 7.141626708984375 0.28349999999999986 7.201626708984374 0.28049999999999986 L 7.2736267089843745 0.2789999999999998 Q 7.276626708984375 0.2789999999999998 7.276626708984375 0.2879999999999998 Q 7.276626708984375 0.2969999999999998 7.2736267089843745 0.2969999999999998 Q 7.213626708984375 0.2969999999999998 7.194876708984375 0.31799999999999984 Q 7.176126708984375 0.33899999999999986 7.176126708984375 0.40349999999999986 L 7.176126708984375 0.6074999999999999 L 7.537626708984375 0.6074999999999999 L 7.537626708984375 0.40349999999999986 Q 7.537626708984375 0.3584999999999998 7.530126708984374 0.3367499999999999 Q 7.522626708984375 0.31499999999999984 7.503126708984375 0.3059999999999998 Q 7.483626708984374 0.2969999999999998 7.441626708984375 0.2969999999999998 Q 7.4371267089843744 0.2969999999999998 7.4371267089843744 0.2879999999999998 Q 7.4371267089843744 0.2789999999999998 7.441626708984375 0.2789999999999998 L 7.513626708984375 0.28049999999999986 Q 7.573626708984375 0.28349999999999986 7.614126708984375 0.28349999999999986 Q 7.6501267089843745 0.28349999999999986 7.713126708984375 0.28049999999999986 L 7.785126708984375 0.2789999999999998 Q 7.7896267089843745 0.2789999999999998 7.7896267089843745 0.2879999999999998 Q 7.7896267089843745 0.2969999999999998 7.785126708984375 0.2969999999999998 Q 7.7431267089843745 0.2969999999999998 7.722876708984375 0.3052499999999999 Q 7.702626708984375 0.3134999999999999 7.6951267089843745 0.3344999999999999 Q 7.687626708984375 0.3554999999999998 7.687626708984375 0.40049999999999986 L 7.687626708984375 0.8594999999999999 Q 7.687626708984375 0.9044999999999999 7.6951267089843745 0.9262499999999999 Q 7.702626708984375 0.9479999999999998 7.722126708984375 0.9554999999999999 Q 7.741626708984374 0.9629999999999999 7.785126708984375 0.9629999999999999 Q 7.7896267089843745 0.9629999999999999 7.7896267089843745 0.9719999999999999 M 8.0506552734375 0.5774999999999999 Q 8.0506552734375 0.7439999999999999 8.1241552734375 0.8429999999999999 Q 8.1976552734375 0.9419999999999998 8.3311552734375 0.9419999999999998 Q 8.368655273437499 0.9419999999999998 8.4076552734375 0.9314999999999999 Q 8.4466552734375 0.9209999999999998 8.4766552734375 0.8999999999999999 L 8.4781552734375 0.8999999999999999 Q 8.4826552734375 0.8999999999999999 8.4864052734375 0.9052499999999999 Q 8.4901552734375 0.9104999999999999 8.4871552734375 0.9149999999999998 Q 8.3821552734375 0.9989999999999999 8.2561552734375 0.9989999999999999 Q 8.139155273437499 0.9989999999999999 8.0574052734375 0.9487499999999999 Q 7.9756552734375 0.8984999999999999 7.933655273437499 0.8174999999999999 Q 7.891655273437499 0.7364999999999999 7.891655273437499 0.6419999999999999 Q 7.891655273437499 0.5384999999999999 7.9426552734374996 0.4522499999999998 Q 7.9936552734375 0.3659999999999999 8.0806552734375 0.31574999999999986 Q 8.1676552734375 0.26549999999999985 8.269655273437499 0.26549999999999985 Q 8.3806552734375 0.26549999999999985 8.4391552734375 0.32399999999999984 Q 8.4976552734375 0.38249999999999984 8.4976552734375 0.47699999999999987 Q 8.4976552734375 0.4964999999999999 8.4939052734375 0.5039999999999998 Q 8.4901552734375 0.5114999999999998 8.4796552734375 0.5114999999999998 L 8.0536552734375 0.5129999999999999 Q 8.0506552734375 0.5519999999999998 8.0506552734375 0.5774999999999999 M 8.1144052734375 0.3494999999999998 Q 8.0731552734375 0.39749999999999985 8.0581552734375 0.4829999999999999 L 8.3371552734375 0.4784999999999998 Q 8.3341552734375 0.3014999999999999 8.2186552734375 0.3014999999999999 Q 8.1556552734375 0.3014999999999999 8.1144052734375 0.3494999999999998 M 9.39465966796875 0.9719999999999999 Q 9.39465966796875 0.9809999999999999 9.39015966796875 0.9809999999999999 L 9.144159667968749 0.9809999999999999 Q 9.12165966796875 0.9809999999999999 9.06390966796875 0.8909999999999999 Q 9.006159667968749 0.8009999999999999 8.92665966796875 0.6434999999999998 Q 8.895159667968748 0.6479999999999999 8.863659667968749 0.6479999999999999 L 8.83815966796875 0.6479999999999999 L 8.83815966796875 0.8594999999999999 Q 8.83815966796875 0.9059999999999999 8.84490966796875 0.9269999999999998 Q 8.851659667968748 0.9479999999999998 8.87040966796875 0.9554999999999999 Q 8.88915966796875 0.9629999999999999 8.93115966796875 0.9629999999999999 Q 8.93415966796875 0.9629999999999999 8.93415966796875 0.9719999999999999 Q 8.93415966796875 0.9809999999999999 8.93115966796875 0.9809999999999999 Q 8.88615966796875 0.9809999999999999 8.860659667968749 0.9794999999999999 L 8.758659667968749 0.9779999999999999 L 8.661159667968748 0.9794999999999999 Q 8.63415966796875 0.9809999999999999 8.586159667968749 0.9809999999999999 Q 8.583159667968749 0.9809999999999999 8.583159667968749 0.9719999999999999 Q 8.583159667968749 0.9629999999999999 8.586159667968749 0.9629999999999999 Q 8.628159667968749 0.9629999999999999 8.64765966796875 0.9554999999999999 Q 8.667159667968749 0.9479999999999998 8.674659667968749 0.9262499999999999 Q 8.68215966796875 0.9044999999999999 8.68215966796875 0.8594999999999999 L 8.68215966796875 0.40049999999999986 Q 8.68215966796875 0.3554999999999998 8.675409667968749 0.3344999999999999 Q 8.668659667968749 0.3134999999999999 8.64915966796875 0.3052499999999999 Q 8.629659667968749 0.2969999999999998 8.58915966796875 0.2969999999999998 Q 8.584659667968749 0.2969999999999998 8.584659667968749 0.2879999999999998 Q 8.584659667968749 0.2789999999999998 8.58915966796875 0.2789999999999998 L 8.662659667968748 0.28049999999999986 Q 8.722659667968749 0.28349999999999986 8.758659667968749 0.28349999999999986 Q 8.78715966796875 0.28349999999999986 8.811159667968749 0.2819999999999998 Q 8.83515966796875 0.28049999999999986 8.853159667968749 0.2789999999999998 Q 8.902659667968749 0.27449999999999986 8.946159667968749 0.27449999999999986 Q 9.06315966796875 0.27449999999999986 9.12465966796875 0.31199999999999983 Q 9.186159667968749 0.3494999999999998 9.186159667968749 0.4199999999999998 Q 9.186159667968749 0.4784999999999998 9.148659667968749 0.5279999999999998 Q 9.11115966796875 0.5774999999999999 9.045159667968749 0.6089999999999999 Q 9.12615966796875 0.7454999999999998 9.184659667968749 0.8219999999999998 Q 9.243159667968749 0.8984999999999999 9.29115966796875 0.9307499999999999 Q 9.33915966796875 0.9629999999999999 9.39015966796875 0.9629999999999999 Q 9.39465966796875 0.9629999999999999 9.39465966796875 0.9719999999999999 M 8.87415966796875 0.6194999999999999 Q 8.959659667968749 0.6194999999999999 8.992659667968748 0.5797499999999999 Q 9.02565966796875 0.5399999999999998 9.02565966796875 0.4604999999999999 Q 9.02565966796875 0.3044999999999999 8.911659667968749 0.3044999999999999 Q 8.88015966796875 0.3044999999999999 8.865159667968749 0.31199999999999983 Q 8.850159667968748 0.3194999999999999 8.84415966796875 0.3397499999999999 Q 8.83815966796875 0.3599999999999999 8.83815966796875 0.40349999999999986 L 8.83815966796875 0.6179999999999999 Q 8.848659667968748 0.6194999999999999 8.87415966796875 0.6194999999999999 M 10.0996552734375 0.8924999999999998 Q 10.104155273437499 0.8924999999999998 10.106405273437499 0.8999999999999999 Q 10.108655273437499 0.9074999999999999 10.102655273437499 0.9089999999999998 L 9.9376552734375 0.9884999999999998 Q 9.9316552734375 0.9914999999999998 9.9241552734375 0.9914999999999998 Q 9.8956552734375 0.9914999999999998 9.8679052734375 0.9674999999999999 Q 9.8401552734375 0.9434999999999999 9.825155273437499 0.8909999999999999 L 9.735155273437499 0.9434999999999999 Q 9.6901552734375 0.9704999999999999 9.6549052734375 0.9809999999999999 Q 9.6196552734375 0.9914999999999998 9.5821552734375 0.9914999999999998 Q 9.5236552734375 0.9914999999999998 9.4861552734375 0.9599999999999999 Q 9.448655273437499 0.9284999999999999 9.448655273437499 0.8789999999999999 Q 9.448655273437499 0.8324999999999999 9.4794052734375 0.7972499999999999 Q 9.5101552734375 0.7619999999999999 9.5656552734375 0.7424999999999998 L 9.8146552734375 0.6539999999999999 L 9.8146552734375 0.4754999999999998 Q 9.8146552734375 0.3839999999999999 9.7959052734375 0.34199999999999986 Q 9.777155273437499 0.2999999999999998 9.735155273437499 0.2999999999999998 Q 9.687155273437499 0.2999999999999998 9.6601552734375 0.3434999999999998 Q 9.6331552734375 0.3869999999999999 9.6181552734375 0.4544999999999999 Q 9.6016552734375 0.5384999999999999 9.5311552734375 0.5384999999999999 Q 9.4936552734375 0.5384999999999999 9.4719052734375 0.5197499999999999 Q 9.450155273437499 0.5009999999999999 9.450155273437499 0.4664999999999999 Q 9.450155273437499 0.4214999999999999 9.5064052734375 0.37424999999999986 Q 9.5626552734375 0.32699999999999985 9.6436552734375 0.2962499999999999 Q 9.7246552734375 0.26549999999999985 9.7921552734375 0.26549999999999985 Q 9.871655273437499 0.26549999999999985 9.918155273437499 0.30674999999999986 Q 9.964655273437499 0.34799999999999986 9.964655273437499 0.4304999999999999 L 9.964655273437499 0.7499999999999999 Q 9.964655273437499 0.8174999999999999 9.9766552734375 0.8504999999999998 Q 9.9886552734375 0.8834999999999998 10.0074052734375 0.8924999999999998 Q 10.0261552734375 0.9014999999999999 10.0561552734375 0.9014999999999999 Q 10.0711552734375 0.9014999999999999 10.0966552734375 0.8939999999999999 L 10.0996552734375 0.8924999999999998 M 9.8191552734375 0.8609999999999999 Q 9.8146552734375 0.8339999999999999 9.8146552734375 0.8009999999999999 L 9.8146552734375 0.6854999999999999 L 9.685655273437499 0.7334999999999998 Q 9.6136552734375 0.7604999999999998 9.6136552734375 0.8294999999999999 Q 9.6136552734375 0.8699999999999999 9.6331552734375 0.8932499999999999 Q 9.6526552734375 0.9164999999999999 9.685655273437499 0.9164999999999999 Q 9.7096552734375 0.9164999999999999 9.7516552734375 0.8954999999999999 L 9.8191552734375 0.8609999999999999 M 10.413932373046876 0.9224999999999999 Q 10.423682373046875 0.9449999999999998 10.451432373046876 0.9539999999999998 Q 10.479182373046875 0.9629999999999999 10.537682373046875 0.9629999999999999 Q 10.542182373046876 0.9629999999999999 10.542182373046876 0.9719999999999999 Q 10.542182373046876 0.9809999999999999 10.537682373046875 0.9809999999999999 Q 10.480682373046875 0.9809999999999999 10.449182373046876 0.9794999999999999 L 10.330682373046875 0.9779999999999999 L 10.233182373046875 0.9794999999999999 Q 10.206182373046875 0.9809999999999999 10.158182373046875 0.9809999999999999 Q 10.155182373046875 0.9809999999999999 10.155182373046875 0.9719999999999999 Q 10.155182373046875 0.9629999999999999 10.158182373046875 0.9629999999999999 Q 10.200182373046875 0.9629999999999999 10.220432373046876 0.9547499999999999 Q 10.240682373046875 0.9464999999999999 10.248182373046875 0.9254999999999999 Q 10.255682373046875 0.9044999999999999 10.255682373046875 0.8594999999999999 L 10.255682373046875 0.40049999999999986 Q 10.255682373046875 0.3569999999999999 10.247432373046875 0.3352499999999998 Q 10.239182373046875 0.3134999999999999 10.218932373046876 0.3052499999999999 Q 10.198682373046875 0.2969999999999998 10.158182373046875 0.2969999999999998 Q 10.155182373046875 0.2969999999999998 10.155182373046875 0.2879999999999998 Q 10.155182373046875 0.2789999999999998 10.158182373046875 0.2789999999999998 L 10.231682373046874 0.28049999999999986 Q 10.294682373046875 0.28349999999999986 10.329182373046875 0.28349999999999986 Q 10.368182373046876 0.28349999999999986 10.410182373046876 0.2789999999999998 Q 10.426682373046875 0.27749999999999986 10.457432373046876 0.2759999999999999 Q 10.488182373046875 0.27449999999999986 10.510682373046876 0.27449999999999986 Q 10.639682373046876 0.27449999999999986 10.707182373046875 0.3164999999999999 Q 10.774682373046875 0.3584999999999998 10.774682373046875 0.4424999999999999 Q 10.774682373046875 0.5174999999999998 10.737932373046876 0.5699999999999998 Q 10.701182373046874 0.6224999999999998 10.641932373046876 0.6487499999999999 Q 10.582682373046875 0.6749999999999998 10.516682373046875 0.6749999999999998 Q 10.488182373046875 0.6749999999999998 10.482182373046875 0.6719999999999999 Q 10.477682373046875 0.6689999999999998 10.477682373046875 0.6614999999999999 Q 10.477682373046875 0.6524999999999999 10.488182373046875 0.6524999999999999 L 10.509182373046876 0.6539999999999999 Q 10.554182373046876 0.6539999999999999 10.580432373046875 0.6097499999999998 Q 10.606682373046874 0.5654999999999999 10.606682373046874 0.47699999999999987 Q 10.606682373046874 0.3839999999999999 10.573682373046875 0.3427499999999999 Q 10.540682373046875 0.3014999999999999 10.476182373046875 0.3014999999999999 Q 10.438682373046875 0.3014999999999999 10.421432373046875 0.32174999999999987 Q 10.404182373046876 0.34199999999999986 10.404182373046876 0.40349999999999986 L 10.404182373046876 0.8534999999999999 Q 10.404182373046876 0.8999999999999999 10.413932373046876 0.9224999999999999 M 11.61169482421875 0.2879999999999998 Q 11.61169482421875 0.2969999999999998 11.608694824218752 0.2969999999999998 Q 11.56369482421875 0.2969999999999998 11.52694482421875 0.33299999999999985 Q 11.49019482421875 0.3689999999999999 11.46919482421875 0.43199999999999983 L 11.257694824218751 0.9794999999999999 Q 11.221694824218751 1.0784999999999998 11.167694824218751 1.1549999999999998 Q 11.11369482421875 1.2314999999999998 11.05519482421875 1.2614999999999998 Q 11.04619482421875 1.2674999999999998 11.024444824218751 1.2502499999999999 Q 11.00269482421875 1.2329999999999999 10.989194824218751 1.2074999999999998 Q 10.97419482421875 1.1729999999999998 10.97419482421875 1.1444999999999999 Q 10.97419482421875 1.1189999999999998 10.986194824218751 1.1159999999999999 Q 11.070194824218751 1.1039999999999999 11.129444824218751 1.0732499999999998 Q 11.18869482421875 1.0425 11.223194824218751 0.9779999999999999 L 10.947194824218752 0.40349999999999986 Q 10.91719482421875 0.3404999999999999 10.894694824218751 0.31874999999999987 Q 10.87219482421875 0.2969999999999998 10.83319482421875 0.2969999999999998 Q 10.82869482421875 0.2969999999999998 10.82869482421875 0.2879999999999998 Q 10.82869482421875 0.2789999999999998 10.83319482421875 0.2789999999999998 L 10.899194824218752 0.28049999999999986 Q 10.95619482421875 0.28349999999999986 11.00869482421875 0.28349999999999986 Q 11.04619482421875 0.28349999999999986 11.10319482421875 0.28049999999999986 L 11.169194824218751 0.2789999999999998 Q 11.173694824218751 0.2789999999999998 11.173694824218751 0.2879999999999998 Q 11.173694824218751 0.2969999999999998 11.169194824218751 0.2969999999999998 Q 11.091194824218752 0.2969999999999998 11.091194824218752 0.34199999999999986 Q 11.091194824218752 0.3614999999999998 11.10469482421875 0.38849999999999985 L 11.29669482421875 0.7784999999999999 L 11.42869482421875 0.4229999999999998 Q 11.44069482421875 0.3899999999999999 11.44069482421875 0.3659999999999999 Q 11.44069482421875 0.2969999999999998 11.34769482421875 0.2969999999999998 Q 11.34319482421875 0.2969999999999998 11.34319482421875 0.2879999999999998 Q 11.34319482421875 0.2789999999999998 11.34769482421875 0.2789999999999998 L 11.400194824218751 0.28049999999999986 Q 11.448194824218751 0.28349999999999986 11.494694824218751 0.28349999999999986 Q 11.52019482421875 0.28349999999999986 11.553194824218751 0.28049999999999986 L 11.608694824218752 0.2789999999999998 Q 11.61169482421875 0.2789999999999998 11.61169482421875 0.2879999999999998" fill="#8a615c" fill-rule="nonzero"></path></g><g></g><g clip-path="url(#SvgjsClipPath1001)"><g clip-path="url(#SvgjsClipPath1000b42955ee-7d74-468f-990f-298e9dec6621)"><path d=" M 12.410932283340337 0.811913367643536 L 12.5843472045017 0.811913367643536 L 12.410932283340337 0.6226224910471453 L 12.237514594404315 0.811913367643536 L 12.410932283340337 0.811913367643536 Z" fill="#8a615c" transform="matrix(1,0,0,1,0,0)" fill-rule="nonzero"></path></g><g clip-path="url(#SvgjsClipPath1000b42955ee-7d74-468f-990f-298e9dec6621)"><path d=" M 12.410932283340337 0.9214757274579579 L 12.53671933819662 0.9214757274579579 L 12.410932283340337 0.7841747300267586 L 12.285145228484051 0.9214757274579579 L 12.410932283340337 0.9214757274579579 Z" fill="#8a615c" transform="matrix(1,0,0,1,0,0)" fill-rule="nonzero"></path></g><g clip-path="url(#SvgjsClipPath1000b42955ee-7d74-468f-990f-298e9dec6621)"><path d=" M 12.410932283340337 0.16908663235646382 L 12.5843472045017 0.16908663235646382 L 12.410932283340337 0.3583775089528547 L 12.237514594404315 0.16908663235646382 L 12.410932283340337 0.16908663235646382 Z" fill="#8a615c" transform="matrix(1,0,0,1,0,0)" fill-rule="nonzero"></path></g><g clip-path="url(#SvgjsClipPath1000b42955ee-7d74-468f-990f-298e9dec6621)"><path d=" M 12.410932283340337 0.05952150476738448 L 12.53671933819662 0.05952150476738448 L 12.410932283340337 0.19682526997324132 L 12.285145228484051 0.05952150476738448 L 12.410932283340337 0.05952150476738448 Z" fill="#8a615c" transform="matrix(1,0,0,1,0,0)" fill-rule="nonzero"></path></g><g clip-path="url(#SvgjsClipPath1000b42955ee-7d74-468f-990f-298e9dec6621)"><path d=" M 12.410932283340337 -0.023940740027459384 L 12.513840912878294 -0.023940740027459384 L 12.410932283340337 0.08838939444439396 L 12.308020886027723 -0.023940740027459384 L 12.410932283340337 -0.023940740027459384 Z" fill="#8a615c" transform="matrix(1,0,0,1,0,0)" fill-rule="nonzero"></path></g><g clip-path="url(#SvgjsClipPath1000b42955ee-7d74-468f-990f-298e9dec6621)"><path d=" M 12.410932283340337 1.0049407400274593 L 12.513840912878294 1.0049407400274593 L 12.410932283340337 0.892610605555606 L 12.308020886027723 1.0049407400274593 L 12.410932283340337 1.0049407400274593 Z" fill="#8a615c" transform="matrix(1,0,0,1,0,0)" fill-rule="nonzero"></path></g><g clip-path="url(#SvgjsClipPath1000b42955ee-7d74-468f-990f-298e9dec6621)"><path d=" M 12.543053266871638 0.4904988905270542 L 12.41093057739962 0.622621579999072 L 12.278807887927602 0.4904988905270541 L 12.41093057739962 0.3583762010550363 Z" fill="#8a615c" transform="matrix(1,0,0,1,0,0)" fill-rule="nonzero"></path></g><g clip-path="url(#SvgjsClipPath1000b42955ee-7d74-468f-990f-298e9dec6621)"><path d=" M 12.489401462653174 0.6479670035852446 L 12.560159621770408 0.5772116122426683 L 12.659655585155752 0.7474657347452459 L 12.489401462653174 0.6479670035852446 Z" fill="#e9c3ad" transform="matrix(1,0,0,1,0,0)" fill-rule="nonzero"></path></g><g clip-path="url(#SvgjsClipPath1000b42955ee-7d74-468f-990f-298e9dec6621)"><path d=" M 12.332460336252842 0.6479670035852446 L 12.261704944910266 0.5772116122426683 L 12.162206213750263 0.7474657347452459 L 12.332460336252842 0.6479670035852446 Z" fill="#e9c3ad" transform="matrix(1,0,0,1,0,0)" fill-rule="nonzero"></path></g><g clip-path="url(#SvgjsClipPath1000b42955ee-7d74-468f-990f-298e9dec6621)"><path d=" M 12.489401462653174 0.3330329964147553 L 12.560159621770408 0.4037883877573316 L 12.659655585155752 0.23353426525475396 L 12.489401462653174 0.3330329964147553 Z" fill="#e9c3ad" transform="matrix(1,0,0,1,0,0)" fill-rule="nonzero"></path></g><g clip-path="url(#SvgjsClipPath1000b42955ee-7d74-468f-990f-298e9dec6621)"><path d=" M 12.332460336252842 0.3330329964147553 L 12.261704944910266 0.4037883877573316 L 12.162206213750263 0.23353426525475396 L 12.332460336252842 0.3330329964147553 Z" fill="#e9c3ad" transform="matrix(1,0,0,1,0,0)" fill-rule="nonzero"></path></g><g clip-path="url(#SvgjsClipPath1000b42955ee-7d74-468f-990f-298e9dec6621)"><path d=" M 12.072934409949472 0.4904806255773979 L 12.001174316406248 0.41871776425951657 L 12.246523700914254 0.41871776425951657 L 12.17476360737103 0.4904806255773979 L 12.246523700914254 0.5622407191206219 L 12.001174316406248 0.5622407191206219 L 12.072934409949472 0.4904806255773979 Z" fill="#8a615c" transform="matrix(1,0,0,1,0,0)" fill-rule="nonzero"></path></g><g clip-path="url(#SvgjsClipPath1000b42955ee-7d74-468f-990f-298e9dec6621)"><path d=" M 12.748927388956544 0.4904806255773979 L 12.820690250274426 0.41871776425951657 L 12.57533809799176 0.41871776425951657 L 12.647098191534985 0.4904806255773979 L 12.57533809799176 0.5622407191206219 L 12.820690250274426 0.5622407191206219 L 12.748927388956544 0.4904806255773979 Z" fill="#8a615c" transform="matrix(1,0,0,1,0,0)" fill-rule="nonzero"></path></g></g></g><defs><clipPath id="SvgjsClipPath1001"><path d=" M 12.001174316406248 -0.023940740027459384 h 0.8195159338681779 v 1.0288814800549186 h -0.8195159338681779 Z"></path></clipPath><clipPath id="SvgjsClipPath1000b42955ee-7d74-468f-990f-298e9dec6621"><path d=" M 12.001174316406248 -0.023940740027459384 L 12.820690250274426 -0.023940740027459384 L 12.820690250274426 1.0049407400274593 L 12.001174316406248 1.0049407400274593 Z"></path></clipPath></defs></svg>